<svg width="801" height="71" fill="none" xmlns="http://www.w3.org/2000/svg"><path fill-rule="evenodd" clip-rule="evenodd" d="m435.486 36.484.5.014a36.792 36.792 0 0 0 0-1.996l-.5.014-.499.013a34.79 34.79 0 0 1 0 1.942l.499.014zm-.108-3.929.498-.041a35.72 35.72 0 0 0-.22-1.98l-.496.07-.495.07c.089.635.161 1.276.215 1.923l.498-.042zm-.544-3.886.49-.097a34.7 34.7 0 0 0-.441-1.941l-.484.124-.484.125c.16.622.303 1.25.428 1.886l.491-.097zm-.978-3.801.476-.152a35.382 35.382 0 0 0-.657-1.88l-.468.178-.467.179c.23.6.443 1.21.64 1.826l.476-.151zm-1.401-3.667.457-.205a34.945 34.945 0 0 0-.866-1.793l-.444.23-.444.23c.296.571.577 1.152.841 1.742l.456-.204zm-2.434-5.425a36.89 36.89 0 0 1 1.061 1.685l-.431.254-.43.255a35.152 35.152 0 0 0-1.031-1.638l.415-.278.416-.278zm-1.553-1.323.399-.3c-.4-.531-.815-1.05-1.243-1.557l-.382.323-.382.323c.417.492.82.997 1.208 1.512l.4-.3zm-2.535-2.998.364-.343a35.822 35.822 0 0 0-1.409-1.409l-.343.364-.344.363c.469.443.926.9 1.369 1.369l.363-.344zm-2.852-2.697.323-.382a36.108 36.108 0 0 0-1.556-1.243l-.301.4-.301.399c.515.388 1.02.791 1.512 1.208l.323-.382zm-3.135-2.363.278-.416a35.63 35.63 0 0 0-1.685-1.06l-.254.43-.255.43c.556.329 1.103.673 1.638 1.031l.278-.415zm-3.379-1.997.23-.444a35.188 35.188 0 0 0-1.793-.866l-.205.457-.204.456c.59.264 1.171.545 1.743.84l.229-.443zm-3.581-1.605.178-.468a34.929 34.929 0 0 0-1.88-.657l-.152.476-.151.476c.616.197 1.225.41 1.826.64l.179-.467zM409.245 1.6l.125-.484a35.389 35.389 0 0 0-1.942-.441l-.097.49-.097.49c.635.126 1.264.27 1.886.43l.125-.485zM405.396.84l.069-.496a35.59 35.59 0 0 0-1.979-.22l-.041.498-.042.498a34.59 34.59 0 0 1 1.924.215l.069-.495zm-3.911-.326.013-.5a36.1 36.1 0 0 0-1.996 0l.013.5.014.5a35.176 35.176 0 0 1 1.942 0l.014-.5zm-3.93.108-.041-.498c-.665.055-1.325.129-1.979.22l.069.496.069.495c.636-.09 1.277-.16 1.924-.215l-.042-.498zm-3.886.544-.097-.49c-.654.129-1.301.276-1.942.441l.125.484.125.484c.622-.16 1.251-.303 1.886-.428l-.097-.49zm-3.801.978-.152-.476c-.635.202-1.262.421-1.88.657l.178.468.179.467c.601-.23 1.21-.443 1.826-.64l-.151-.476zm-3.667 1.4-.205-.456a35.18 35.18 0 0 0-1.793.866l.23.444.229.444A34.38 34.38 0 0 1 386.405 4l-.204-.456zm-3.486 1.805-.254-.43a35.63 35.63 0 0 0-1.685 1.06l.278.416.278.415a34.315 34.315 0 0 1 1.638-1.03l-.255-.431zm-3.262 2.183-.301-.399c-.53.4-1.049.815-1.556 1.243l.323.382.323.382c.492-.417.997-.82 1.512-1.208l-.301-.4zm-2.998 2.535-.343-.364c-.483.457-.952.926-1.409 1.409l.364.343.363.344c.443-.47.9-.926 1.369-1.369l-.344-.363zm-4.322 4.085c.4-.53.815-1.05 1.243-1.556l.382.323.382.323c-.417.492-.82.997-1.208 1.512l-.4-.3-.399-.302zm-.738 1.902-.416-.278a36.89 36.89 0 0 0-1.061 1.685l.431.254.43.255c.329-.556.673-1.102 1.031-1.638l-.415-.278zm-1.997 3.379-.444-.23a34.945 34.945 0 0 0-.866 1.793l.457.205.456.204c.264-.59.545-1.17.841-1.743l-.444-.23zm-1.605 3.581-.468-.178a35.382 35.382 0 0 0-.657 1.88l.476.152.476.151c.197-.616.41-1.225.64-1.826l-.467-.179zm-1.192 3.741-.484-.124a34.7 34.7 0 0 0-.441 1.94l.49.098.491.097a33.68 33.68 0 0 1 .428-1.886l-.484-.125zm-.761 3.85-.496-.07a35.72 35.72 0 0 0-.22 1.979l.498.041.498.042c.054-.647.126-1.288.215-1.924l-.495-.069zM365 35.5c0-.334.005-.667.014-.998l.5.014.499.013a34.79 34.79 0 0 0 0 1.942l-.499.014-.5.013A36.792 36.792 0 0 1 365 35.5zm.622 2.945-.498.041c.055.665.129 1.325.22 1.98l.496-.07.495-.07a34.705 34.705 0 0 1-.215-1.923l-.498.042zm.544 3.886-.49.097c.129.654.276 1.301.441 1.942l.484-.125.484-.125a33.68 33.68 0 0 1-.428-1.886l-.491.097zm.978 3.801-.476.152c.202.635.421 1.261.657 1.88l.468-.178.467-.179c-.23-.6-.443-1.21-.64-1.826l-.476.151zm1.401 3.667-.457.205c.272.607.561 1.205.866 1.793l.444-.23.444-.23a34.034 34.034 0 0 1-.841-1.742l-.456.204zm1.804 3.486-.431.254a36.89 36.89 0 0 0 1.061 1.685l.416-.278.415-.278a35.152 35.152 0 0 1-1.031-1.638l-.43.255zm2.183 3.262-.399.3c.4.531.815 1.05 1.243 1.557l.382-.323.382-.323c-.417-.492-.82-.997-1.208-1.512l-.4.3zm2.535 2.998-.364.343c.457.483.926.952 1.409 1.409l.343-.364.344-.363c-.469-.443-.926-.9-1.369-1.369l-.363.344zm2.852 2.697-.323.382a36.1 36.1 0 0 0 1.556 1.243l.301-.4.301-.399a34.684 34.684 0 0 1-1.512-1.208l-.323.382zm3.135 2.363-.278.416c.551.368 1.113.722 1.685 1.06l.254-.43.255-.43a34.307 34.307 0 0 1-1.638-1.031l-.278.415zm3.379 1.997-.23.444c.588.305 1.186.594 1.793.866l.205-.457.204-.456a34.328 34.328 0 0 1-1.743-.84l-.229.443zm3.581 1.605-.178.468a34.99 34.99 0 0 0 1.88.657l.152-.476.151-.476a34.384 34.384 0 0 1-1.826-.64l-.179.468zm5.558 2.117a35.355 35.355 0 0 1-1.942-.441l.125-.484.125-.484c.622.16 1.251.303 1.886.428l-.097.49-.097.491zm2.032-.164-.069.496a35.54 35.54 0 0 0 1.979.22l.041-.498.042-.498a34.61 34.61 0 0 1-1.924-.215l-.069.495zm3.911.326-.013.5a35.937 35.937 0 0 0 1.996 0l-.013-.5-.014-.5a35.215 35.215 0 0 1-1.942 0l-.014.5zm3.93-.108.041.498a35.54 35.54 0 0 0 1.979-.22l-.069-.496-.069-.495a34.61 34.61 0 0 1-1.924.215l.042.498zm3.886-.544.097.49c.654-.129 1.301-.276 1.942-.441l-.125-.484-.125-.484c-.622.16-1.251.303-1.886.428l.097.49zm3.801-.978.152.476a34.99 34.99 0 0 0 1.88-.657l-.178-.468-.179-.467c-.601.23-1.21.443-1.826.64l.151.476zm3.667-1.4.205.456c.607-.272 1.205-.561 1.793-.866l-.23-.444-.229-.444c-.572.296-1.153.577-1.743.841l.204.456zm5.425-2.435c-.551.368-1.113.722-1.685 1.06l-.254-.43-.255-.43a34.307 34.307 0 0 0 1.638-1.031l.278.415.278.416zm1.323-1.553.301.399a36.1 36.1 0 0 0 1.556-1.243l-.323-.382-.323-.382c-.492.417-.997.82-1.512 1.208l.301.4zm2.998-2.535.343.364c.483-.457.952-.926 1.409-1.409l-.364-.343-.363-.344c-.443.47-.9.926-1.369 1.369l.344.363zm2.697-2.852.382.323a36.07 36.07 0 0 0 1.243-1.556l-.399-.301-.4-.301c-.388.515-.791 1.02-1.208 1.512l.382.323zm2.363-3.135.416.278a36.89 36.89 0 0 0 1.061-1.685l-.431-.254-.43-.255a35.152 35.152 0 0 1-1.031 1.638l.415.278zm1.997-3.379.444.23c.305-.588.594-1.186.866-1.793l-.457-.205-.456-.204c-.264.59-.545 1.17-.841 1.743l.444.23zm1.605-3.581.468.178c.236-.619.455-1.245.657-1.88l-.476-.152-.476-.151c-.197.616-.41 1.225-.64 1.826l.467.179zm1.192-3.741.484.125c.165-.64.312-1.288.441-1.942l-.49-.097-.491-.097a33.68 33.68 0 0 1-.428 1.886l.484.125zm.761-3.85.496.07a35.72 35.72 0 0 0 .22-1.979l-.498-.041-.498-.042a34.684 34.684 0 0 1-.215 1.924l.495.069zm-37.6 3.247c.801.398 1.701.597 2.701.597 1.108 0 2.097-.25 2.966-.75a5.483 5.483 0 0 0 2.046-2.063c.5-.875.75-1.87.75-2.983 0-1.13-.242-2.136-.725-3.017a5.354 5.354 0 0 0-1.977-2.08c-.835-.51-1.787-.766-2.855-.766a5.11 5.11 0 0 0-1.688.28c-.539.188-.988.424-1.346.708h-.102l.613-5.147h7.296v-1.875h-9.069l-1.056 8.59 1.977.239c.364-.261.827-.474 1.389-.64a5.46 5.46 0 0 1 1.645-.246c.744.005 1.406.181 1.986.528a3.69 3.69 0 0 1 1.363 1.423c.336.597.503 1.276.503 2.037 0 .745-.162 1.412-.486 2.003a3.544 3.544 0 0 1-1.321 1.38c-.556.336-1.193.504-1.909.504-.892 0-1.659-.256-2.301-.767-.636-.517-.994-1.17-1.074-1.96h-2.045c.045.886.31 1.675.793 2.369a5.011 5.011 0 0 0 1.926 1.636zM.997 42H0v-1h.997v1zm3.988 0H2.991v-1h1.994v1zm3.988 0H6.98v-1h1.994v1zm3.988 0h-1.994v-1h1.994v1zm3.988 0h-1.994v-1h1.994v1zm3.988 0h-1.994v-1h1.994v1zm3.989 0h-1.994v-1h1.994v1zm3.988 0H26.92v-1h1.994v1zm3.988 0h-1.994v-1h1.994v1zm3.988 0h-1.994v-1h1.994v1zm3.988 0h-1.994v-1h1.994v1zm3.988 0h-1.994v-1h1.994v1zm3.988 0H46.86v-1h1.994v1zm3.988 0h-1.994v-1h1.994v1zm3.988 0h-1.994v-1h1.994v1zm3.989 0h-1.995v-1h1.995v1zm3.988 0h-1.995v-1h1.995v1zm3.988 0H66.8v-1h1.994v1zm3.988 0h-1.994v-1h1.994v1zm3.988 0h-1.994v-1h1.994v1zm3.988 0h-1.994v-1h1.994v1zm3.988 0h-1.994v-1h1.994v1zm3.988 0h-1.994v-1h1.994v1zm3.988 0H90.73v-1h1.994v1zm3.988 0h-1.994v-1h1.994v1zm3.988 0h-1.994v-1h1.994v1zm3.989 0h-1.995v-1h1.995v1zm3.988 0h-1.994v-1h1.994v1zm3.988 0h-1.994v-1h1.994v1zm3.988 0h-1.994v-1h1.994v1zm3.988 0h-1.994v-1h1.994v1zm3.988 0h-1.994v-1h1.994v1zm3.988 0h-1.994v-1h1.994v1zm3.988 0h-1.994v-1h1.994v1zm3.988 0h-1.994v-1h1.994v1zm3.988 0h-1.994v-1h1.994v1zm3.989 0h-1.995v-1h1.995v1zm3.988 0h-1.994v-1h1.994v1zm3.988 0h-1.994v-1h1.994v1zm3.988 0h-1.994v-1h1.994v1zm3.988 0h-1.994v-1h1.994v1zm3.988 0h-1.994v-1h1.994v1zm3.988 0h-1.994v-1h1.994v1zm3.988 0h-1.994v-1h1.994v1zm3.988 0h-1.994v-1h1.994v1zm3.988 0h-1.994v-1h1.994v1zm3.988 0h-1.994v-1h1.994v1zm3.989 0h-1.994v-1h1.994v1zm3.988 0h-1.994v-1h1.994v1zm3.988 0h-1.994v-1h1.994v1zm3.988 0h-1.994v-1h1.994v1zm3.988 0h-1.994v-1h1.994v1zm3.988 0h-1.994v-1h1.994v1zm3.988 0h-1.994v-1h1.994v1zm3.988 0h-1.994v-1h1.994v1zm3.988 0h-1.994v-1h1.994v1zm3.989 0h-1.995v-1h1.995v1zm3.988 0h-1.994v-1h1.994v1zm3.988 0h-1.994v-1h1.994v1zm3.988 0h-1.994v-1h1.994v1zm3.988 0h-1.994v-1h1.994v1zm3.988 0h-1.994v-1h1.994v1zm3.988 0h-1.994v-1h1.994v1zm3.988 0h-1.994v-1h1.994v1zm3.988 0h-1.994v-1h1.994v1zm3.988 0h-1.994v-1h1.994v1zm3.988 0h-1.994v-1h1.994v1zm3.989 0h-1.994v-1h1.994v1zm3.988 0h-1.994v-1h1.994v1zm3.988 0h-1.994v-1h1.994v1zm3.988 0h-1.994v-1h1.994v1zm3.988 0h-1.994v-1h1.994v1zm3.988 0h-1.994v-1h1.994v1zm3.988 0h-1.994v-1h1.994v1zm3.988 0h-1.994v-1h1.994v1zm3.988 0h-1.994v-1h1.994v1zm3.988 0h-1.994v-1h1.994v1zm3.989 0h-1.995v-1h1.995v1zm3.988 0h-1.994v-1h1.994v1zm3.988 0h-1.994v-1h1.994v1zm3.988 0h-1.994v-1h1.994v1zm3.988 0h-1.994v-1h1.994v1zm3.988 0h-1.994v-1h1.994v1zm3.988 0h-1.994v-1h1.994v1zM335 42h-.997v-1H335v1zm131 0h.997v-1H466v1zm2.991 0h1.994v-1h-1.994v1zm3.988 0h1.994v-1h-1.994v1zm3.988 0h1.994v-1h-1.994v1zm3.988 0h1.994v-1h-1.994v1zm3.988 0h1.995v-1h-1.995v1zm3.989 0h1.994v-1h-1.994v1zm3.988 0h1.994v-1h-1.994v1zm3.988 0h1.994v-1h-1.994v1zm3.988 0h1.994v-1h-1.994v1zm3.988 0h1.994v-1h-1.994v1zm3.988 0h1.994v-1h-1.994v1zm3.988 0h1.994v-1h-1.994v1zm3.988 0h1.994v-1h-1.994v1zm3.988 0h1.994v-1h-1.994v1zm3.988 0h1.994v-1h-1.994v1zm3.988 0h1.995v-1h-1.995v1zm3.989 0h1.994v-1h-1.994v1zm3.988 0h1.994v-1h-1.994v1zm3.988 0h1.994v-1h-1.994v1zm3.988 0h1.994v-1h-1.994v1zm3.988 0h1.994v-1h-1.994v1zm3.988 0h1.994v-1h-1.994v1zm3.988 0h1.994v-1h-1.994v1zm3.988 0h1.994v-1h-1.994v1zm3.988 0h1.994v-1h-1.994v1zm3.988 0h1.995v-1h-1.995v1zm3.989 0h1.994v-1h-1.994v1zm3.988 0h1.994v-1h-1.994v1zm3.988 0h1.994v-1h-1.994v1zm3.988 0h1.994v-1h-1.994v1zm3.988 0h1.994v-1h-1.994v1zm3.988 0h1.994v-1h-1.994v1zm3.988 0h1.994v-1h-1.994v1zm3.988 0h1.994v-1h-1.994v1zm3.988 0h1.994v-1h-1.994v1zm3.988 0h1.995v-1h-1.995v1zm3.989 0h1.994v-1h-1.994v1zm3.988 0h1.994v-1h-1.994v1zm3.988 0h1.994v-1h-1.994v1zm3.988 0h1.994v-1h-1.994v1zm3.988 0h1.994v-1h-1.994v1zm3.988 0h1.994v-1h-1.994v1zm3.988 0h1.994v-1h-1.994v1zm3.988 0h1.994v-1h-1.994v1zm3.988 0h1.994v-1h-1.994v1zm3.988 0h1.994l.001-1h-1.995v1zm3.989 0h1.994v-1h-1.994v1zm3.988 0h1.994v-1h-1.994v1zm3.988 0h1.994v-1h-1.994v1zm3.988 0h1.994v-1h-1.994v1zm3.988 0h1.994v-1h-1.994v1zm3.988 0h1.994v-1h-1.994v1zm3.988 0h1.994v-1h-1.994v1zm3.988 0h1.994v-1h-1.994v1zm3.988 0h1.994v-1h-1.994v1zm3.988 0h1.995v-1h-1.995v1zm3.989 0h1.994v-1h-1.994v1zm3.988 0h1.994v-1h-1.994v1zm3.988 0h1.994v-1h-1.994v1zm3.988 0h1.994v-1h-1.994v1zm3.988 0h1.994v-1h-1.994v1zm3.988 0h1.994v-1h-1.994v1zm3.988 0h1.994v-1h-1.994v1zm3.988 0h1.994v-1h-1.994v1zm3.988 0h1.994v-1h-1.994v1zm3.988 0h1.994v-1h-1.994v1zm3.989 0h1.994v-1h-1.994v1zm3.988 0h1.994v-1h-1.994v1zm3.988 0h1.994v-1h-1.994v1zm3.988 0h1.994v-1h-1.994v1zm3.988 0h1.994v-1h-1.994v1zm3.988 0h1.994v-1h-1.994v1zm3.988 0h1.994v-1h-1.994v1zm3.988 0h1.994v-1h-1.994v1zm3.988 0h1.994v-1h-1.994v1zm3.988 0h1.994v-1h-1.994v1zm3.988 0h1.995v-1h-1.995v1zm3.989 0h1.994v-1h-1.994v1zm3.988 0h1.994v-1h-1.994v1zm3.988 0h1.994v-1h-1.994v1zm3.988 0h1.994v-1h-1.994v1zm3.988 0h1.994v-1h-1.994v1zm3.988 0h1.994v-1h-1.994v1zm3.988 0H801v-1h-.997v1z" fill="#959595"/></svg>